Coordinates
version=1
nRows=26
nColumns=27
inDegrees=yes

Units are S.I. units (second, meters, Newtons, ...)
If the header above contains a line with 'inDegrees', this indicates whether rotational values are in degrees (yes) or radians (no).

endheader
time	pelvis_rotation	pelvis_tilt	pelvis_list	pelvis_tx	pelvis_ty	pelvis_tz	hip_flexion_r	hip_adduction_r	hip_rotation_r	knee_angle_r	knee_rotation_r	knee_adduction_r	knee_angle_r_beta	ankle_angle_r	subtalar_angle_r	mtp_angle_r	hip_flexion_l	hip_adduction_l	hip_rotation_l	knee_angle_l	knee_rotation_l	knee_adduction_l	knee_angle_l_beta	ankle_angle_l	subtalar_angle_l	mtp_angle_l
      5.39500000	      9.08153535	    -29.18073063	      1.89196133	     -0.03403411	      0.47614790	     -1.16263284	    119.22696017	    -46.75038575	     24.17176163	    105.48757833	      0.00000000	      9.92856866	      1.84110556	     16.50306202	      0.00000000	      0.00000000	    119.56906660	    -25.98168395	     19.30817984	    100.25235045	      0.00000000	     -9.95047254	      1.74973360	     11.18865683	      0.00000000	      0.00000000
      5.40000000	      9.11469907	    -29.35036082	      1.94939992	     -0.03501254	      0.47781596	     -1.16265529	    119.23771399	    -46.72289649	     23.99719983	    105.26051605	      0.00000000	      9.92773672	      1.83714258	     16.37639477	      0.00000000	      0.00000000	    119.48957885	    -25.88879180	     19.12510550	     99.99380853	      0.00000000	     -9.94994779	      1.74522119	     11.08340586	      0.00000000	      0.00000000
      5.40500000	      9.11498470	    -29.51881050	      2.01215455	     -0.03599696	      0.47954996	     -1.16267463	    119.23920811	    -46.65942849	     23.81171536	    105.02123397	      0.00000000	      9.92682218	      1.83296632	     16.25281383	      0.00000000	      0.00000000	    119.39390757	    -25.83985035	     18.92988432	     99.72500449	      0.00000000	     -9.94943499	      1.74052967	     10.96971245	      0.00000000	      0.00000000
      5.41000000	      9.13329380	    -29.69044332	      2.07123551	     -0.03700363	      0.48131210	     -1.16270150	    119.23877214	    -46.61921183	     23.61847990	    104.77611248	      0.00000000	      9.92589040	      1.82868814	     16.12385478	      0.00000000	      0.00000000	    119.30007551	    -25.76462764	     18.73602762	     99.44950937	      0.00000000	     -9.94888615	      1.73572138	     10.86969798	      0.00000000	      0.00000000
      5.41500000	      9.20316571	    -29.86925053	      2.12221624	     -0.03798618	      0.48311037	     -1.16272825	    119.24140251	    -46.65190696	     23.41242553	    104.53214803	      0.00000000	      9.92497143	      1.82443016	     15.98959536	      0.00000000	      0.00000000	    119.21711297	    -25.62368488	     18.55348071	     99.16985552	      0.00000000	     -9.94828890	      1.73084050	     10.76586247	      0.00000000	      0.00000000
      5.42000000	      9.18643628	    -30.04078438	      2.18422788	     -0.03904234	      0.48497315	     -1.16273618	    119.21321253	    -46.55706852	     23.20463570	    104.27029453	      0.00000000	      9.92391850	      1.81985995	     15.85623210	      0.00000000	      0.00000000	    119.10375005	    -25.58448817	     18.35450581	     98.87412942	      0.00000000	     -9.94771449	      1.72567910	     10.65119502	      0.00000000	      0.00000000
      5.42500000	      9.18984320	    -30.22186704	      2.24540760	     -0.04011700	      0.48684809	     -1.16274086	    119.20337939	    -46.49099158	     23.00063064	    104.00726843	      0.00000000	      9.92282289	      1.81526928	     15.72859754	      0.00000000	      0.00000000	    119.00459021	    -25.51832880	     18.15579879	     98.57598024	      0.00000000	     -9.94710099	      1.72047542	     10.53491003	      0.00000000	      0.00000000
      5.43000000	      9.20347040	    -30.38413146	      2.30496074	     -0.04116083	      0.48879967	     -1.16273684	    119.15479448	    -46.44548618	     22.77276026	    103.73589273	      0.00000000	      9.92171501	      1.81053288	     15.60257585	      0.00000000	      0.00000000	    118.87550534	    -25.45058694	     17.94920904	     98.26691318	      0.00000000	     -9.94645047	      1.71508118	     10.41908490	      0.00000000	      0.00000000
      5.43500000	      9.23895309	    -30.56444916	      2.36039310	     -0.04223999	      0.49076718	     -1.16273482	    119.11933349	    -46.41822009	     22.54298576	    103.45791597	      0.00000000	      9.92055915	      1.80568127	     15.46383529	      0.00000000	      0.00000000	    118.76506642	    -25.34670518	     17.75372215	     97.95052618	      0.00000000	     -9.94579757	      1.70955919	     10.30450375	      0.00000000	      0.00000000
      5.44000000	      9.25748774	    -30.74532493	      2.41864629	     -0.04335336	      0.49277001	     -1.16272842	    119.08165747	    -46.37299535	     22.30826198	    103.17270688	      0.00000000	      9.91935087	      1.80070343	     15.32521461	      0.00000000	      0.00000000	    118.65102556	    -25.26272729	     17.55191536	     97.62580860	      0.00000000	     -9.94509756	      1.70389180	     10.17655631	      0.00000000	      0.00000000
      5.44500000	      9.29415474	    -30.90658345	      2.46004600	     -0.04442564	      0.49484123	     -1.16271388	    118.98696169	    -46.36378482	     22.03419269	    102.87702191	      0.00000000	      9.91812942	      1.79554276	     15.19775192	      0.00000000	      0.00000000	    118.51081527	    -25.15217689	     17.36162938	     97.29469659	      0.00000000	     -9.94438170	      1.69811280	     10.09124120	      0.00000000	      0.00000000
      5.45000000	      9.30696732	    -31.08544411	      2.51402332	     -0.04558260	      0.49691727	     -1.16267225	    118.92918497	    -46.30635935	     21.78268427	    102.57991717	      0.00000000	      9.91686009	      1.79035730	     15.06655766	      0.00000000	      0.00000000	    118.39186658	    -25.07919025	     17.15752197	     96.94943799	      0.00000000	     -9.94368031	      1.69208690	      9.94000467	      0.00000000	      0.00000000
      5.45500000	      9.32744251	    -31.24921927	      2.56567473	     -0.04671432	      0.49905483	     -1.16262277	    118.83410468	    -46.26332899	     21.51227519	    102.27215719	      0.00000000	      9.91558190	      1.78498588	     14.92934187	      0.00000000	      0.00000000	    118.24314402	    -25.00080280	     16.95146724	     96.59497229	      0.00000000	     -9.94290132	      1.68590031	      9.81176630	      0.00000000	      0.00000000
      5.46000000	      9.35982411	    -31.39831700	      2.62018390	     -0.04784802	      0.50118104	     -1.16259317	    118.72387220	    -46.23377377	     21.24483974	    101.96000610	      0.00000000	      9.91421205	      1.77953781	     14.80321235	      0.00000000	      0.00000000	    118.08540707	    -24.90627235	     16.74132119	     96.24255332	      0.00000000	     -9.94214834	      1.67974944	      9.67687859	      0.00000000	      0.00000000
      5.46500000	      9.39343633	    -31.56799974	      2.67292984	     -0.04899440	      0.50333986	     -1.16255063	    118.63470496	    -46.20733758	     20.97307071	    101.64537616	      0.00000000	      9.91285649	      1.77404648	     14.67436395	      0.00000000	      0.00000000	    117.94491836	    -24.81563782	     16.53301216	     95.88216212	      0.00000000	     -9.94134672	      1.67345942	      9.55020319	      0.00000000	      0.00000000
      5.47000000	      9.42172108	    -31.71895296	      2.71916120	     -0.05016478	      0.50553750	     -1.16247585	    118.50158271	    -46.17026887	     20.67985256	    101.31972566	      0.00000000	      9.91148957	      1.76836281	     14.54654760	      0.00000000	      0.00000000	    117.78302204	    -24.72953190	     16.32802791	     95.50888407	      0.00000000	     -9.94051495	      1.66694449	      9.40969039	      0.00000000	      0.00000000
      5.47500000	      9.44654172	    -31.88484346	      2.77536991	     -0.05135616	      0.50773988	     -1.16244548	    118.39706480	    -46.12064189	     20.41335561	    100.98587575	      0.00000000	      9.91009187	      1.76253603	     14.39516007	      0.00000000	      0.00000000	    117.63321922	    -24.64910217	     16.11188587	     95.13434590	      0.00000000	     -9.93969355	      1.66040757	      9.27459532	      0.00000000	      0.00000000
      5.48000000	      9.49410676	    -32.00555537	      2.81529500	     -0.05247470	      0.50995978	     -1.16236039	    118.21391111	    -46.12165678	     20.09451791	    100.65783513	      0.00000000	      9.90868102	      1.75681064	     14.30123136	      0.00000000	      0.00000000	    117.44447471	    -24.55057611	     15.90771357	     94.75622827	      0.00000000	     -9.93891192	      1.65380817	      9.12466602	      0.00000000	      0.00000000
      5.48500000	      9.54007631	    -32.13879919	      2.86681734	     -0.05361229	      0.51217593	     -1.16227772	    118.05550185	    -46.10327908	     19.80115155	    100.32282772	      0.00000000	      9.90734690	      1.75096366	     14.18913348	      0.00000000	      0.00000000	    117.26304566	    -24.45978341	     15.69345387	     94.37248481	      0.00000000	     -9.93806851	      1.64711058	      8.96904431	      0.00000000	      0.00000000
      5.49000000	      9.55547039	    -32.25639029	      2.88313630	     -0.05474113	      0.51441658	     -1.16219566	    117.83749508	    -46.07511421	     19.45551631	     99.97794616	      0.00000000	      9.90588739	      1.74494434	     14.06632689	      0.00000000	      0.00000000	    117.07972379	    -24.39221746	     15.50589666	     93.99003397	      0.00000000	     -9.93723002	      1.64043556	      8.84219628	      0.00000000	      0.00000000
      5.49500000	      9.61666537	    -32.39176520	      2.95683266	     -0.05590227	      0.51662131	     -1.16211225	    117.70905562	    -46.06201850	     19.19417631	     99.64213121	      0.00000000	      9.90445955	      1.73908326	     13.94574957	      0.00000000	      0.00000000	    116.89209801	    -24.29293781	     15.27379278	     93.59673018	      0.00000000	     -9.93635000	      1.63357111	      8.68585602	      0.00000000	      0.00000000
      5.50000000	      9.64650408	    -32.49760746	      2.99891162	     -0.05701314	      0.51883801	     -1.16202085	    117.50891736	    -46.03691621	     18.88344453	     99.30165567	      0.00000000	      9.90304887	      1.73314084	     13.83111665	      0.00000000	      0.00000000	    116.68464555	    -24.22039924	     15.06614225	     93.20780558	      0.00000000	     -9.93550603	      1.62678310	      8.54904280	      0.00000000	      0.00000000
      5.50500000	      9.67861086	    -32.59197101	      3.04308176	     -0.05810649	      0.52105345	     -1.16191111	    117.29130488	    -46.01075296	     18.57273732	     98.95979381	      0.00000000	      9.90166653	      1.72717423	     13.73229526	      0.00000000	      0.00000000	    116.46600047	    -24.15428706	     14.85490003	     92.81541479	      0.00000000	     -9.93467924	      1.61993458	      8.39356646	      0.00000000	      0.00000000
      5.51000000	      9.71753113	    -32.70216568	      3.09098876	     -0.05920642	      0.52323097	     -1.16180473	    117.10060597	    -45.98640597	     18.27871721	     98.61947305	      0.00000000	      9.90026967	      1.72123451	     13.62995756	      0.00000000	      0.00000000	    116.26815324	    -24.07941864	     14.64464713	     92.42620764	      0.00000000	     -9.93381590	      1.61314164	      8.24704635	      0.00000000	      0.00000000
      5.51500000	      9.77554725	    -32.81713066	      3.13514208	     -0.06029385	      0.52538328	     -1.16169704	    116.91545819	    -45.98517883	     17.97796655	     98.28210932	      0.00000000	      9.89892836	      1.71534640	     13.52456518	      0.00000000	      0.00000000	    116.08348081	    -23.98148120	     14.44739197	     92.03580100	      0.00000000	     -9.93292594	      1.60632776	      8.08644996	      0.00000000	      0.00000000
      5.52000000	      9.81970038	    -32.91297804	      3.17418485	     -0.06134784	      0.52754777	     -1.16158273	    116.69604664	    -45.97561864	     17.66859302	     97.94039523	      0.00000000	      9.89757059	      1.70938237	     13.43091353	      0.00000000	      0.00000000	    115.87518897	    -23.89986445	     14.24569569	     91.64286471	      0.00000000	     -9.93202595	      1.59946973	      7.94275177	      0.00000000	      0.00000000
